<svg width="473" height="243" viewBox="0 0 473 243" fill="none" xmlns="http://www.w3.org/2000/svg">
<path d="M142.948 9.70765L124.845 7.53574L124.368 16.0468L110.233 23.8693L112.164 42.8956L144.39 50.9035L142.948 9.70765Z" fill="#CCCCCC" stroke="black" stroke-width="3.09523"/>
<path d="M234.897 34.7112L232.124 36.1415L245.476 47.9811L234.897 34.7112ZM230.105 30.7912L228.044 27.6392L227.897 30.3232L230.105 30.7912ZM220.062 23.2248L218.378 25.9087L221.068 24.6462L220.062 23.2248ZM223.37 27.083L224.088 24.0723L222.234 23.4896L223.37 27.083ZM205.25 21.7945H201.064L206.109 23.728L205.25 21.7945ZM196.396 22.8186L190.391 16.0203L183.639 29.2991L190.75 34.0402L193.588 53.2431L198.044 51.5127L205.085 50.8681L215.146 95.7721L226.372 91.34L226.343 77.8759L243.981 75.1654L241.561 58.152L222.405 33.5369L225.195 28.0807L219.826 31.5151L214.18 23.728L204.031 27.0742L196.396 22.8186ZM213.38 16.7267L212.067 17.4153L213.745 18.9515L213.38 16.7267ZM209.995 15.4641L207.622 12.0297L206.51 13.769L209.995 15.4641ZM205.55 14.7931L204.343 10.9084L202.895 11.3057L205.55 14.7931ZM199.751 10.3698L196.784 10.1579L196.084 11.2527L199.751 10.3698Z" fill="#CCCCCC" stroke="black" stroke-width="3.09523"/>
<path d="M148.799 87.3405L147.08 86.334L147.386 87.8879L148.799 87.3405ZM179.494 8.19791L173.925 12.992L181.184 9.99902L179.494 8.19791ZM193.311 7.18258L190.939 8.15377L195.713 7.44745L193.311 7.18258ZM187.324 6.55573L185.964 6.37915L185.558 8.04782L187.324 6.55573ZM164.653 17.1505L160.244 11.5882L166.207 5.77878L149.694 17.4948L142.948 9.70766L144.39 50.9035L142.965 58.7789L122.066 63.4847L137.455 78.5027L162.292 80.8159L163.794 87.2081L164.259 71.6162L168.845 85.407L190.379 87.6318L175.173 66.4424L193.588 53.2431L190.75 34.0402L183.639 29.2991L190.391 16.0203L189.667 9.61937L164.653 17.1505ZM185.199 6.66168L178.723 5.21373L183.968 7.77412L185.199 6.66168ZM176.48 2L175.185 2.59154L178.311 3.79227L176.48 2Z" fill="#CCCCCC" stroke="black" stroke-width="3.09523"/>
<path d="M99.6607 50.4885L99.3369 49.3761L98.8129 50.1795L99.6607 50.4885ZM106.631 51.5656L107.114 49.844L106.378 46.2595L106.631 51.5656ZM105.954 16.1086L105.765 15.623L88.1162 21.9004L86.6562 34.4993L93.3321 48.3961L96.1461 41.6507L112.165 42.8956L110.234 23.8693L105.954 16.1086Z" fill="#CCCCCC" stroke="black" stroke-width="3.09523"/>
<path d="M124.845 7.53574L105.765 15.623L105.954 16.1086L110.233 23.8693L124.368 16.0468L124.845 7.53574Z" fill="#CCCCCC" stroke="black" stroke-width="3.09523"/>
<path d="M392.251 196.343L388.147 191.319L382.366 200.783L374.384 205.728L370.063 227.659L349.911 230.978L345.178 238.995L381.383 231.738L417.059 239.357L412.378 226.926L417.347 201.816L416.594 193.129L397.808 202.876L392.251 196.343Z" fill="#CCCCCC" stroke="black" stroke-width="3.09523"/>
<path d="M376.544 143.943L368.114 141.444L366.801 148.649L366.477 141.444L358.224 141.594L360.973 136.659L351.583 140.067L354.868 133.745L349.081 129.525L342.311 132.421L333.987 161.91L327.647 156.241L310.533 180.724L332.038 181.369L344.643 179.797L358.777 180.945L360.832 163.631L367.525 163.075L376.544 143.943Z" fill="#CCCCCC" stroke="black" stroke-width="3.09523"/>
<path d="M412.549 179.029L411.183 175.93L408.517 176.407L412.549 179.029ZM384.674 154.423L376.544 143.943L367.525 163.075L360.832 163.631L358.777 180.945L382.367 200.783L388.148 191.319L392.251 196.343L397.808 202.876L416.594 193.129L417.347 201.816L440.695 202.938L446.064 192.537L433.748 182.455L409.706 183.594L406.138 176.884L402.165 182.817L400.175 173.025L409.706 174.023L401.34 169.291L407.01 157.186L384.674 154.423Z" fill="#CCCCCC" stroke="black" stroke-width="3.09523"/>
<path d="M314.619 241.22L345.178 238.995L349.911 230.978L370.062 227.659L374.384 205.728L382.366 200.783L358.777 180.945L344.642 179.797L332.038 181.369L341.746 205.595L321.177 225.063L314.619 241.22Z" fill="#CCCCCC" stroke="black" stroke-width="3.09523"/>
<path d="M470.23 212.208L460.081 211.299L446.064 192.537L440.695 202.938L417.347 201.816L412.378 226.926L417.059 239.357L429.657 226.961L429.686 238.351L441.813 228.621L465.544 226.467L470.23 212.208Z" fill="#CCCCCC" stroke="black" stroke-width="3.09523"/>
<path d="M286.473 192.113L283.029 189.306L288.904 194.956L286.473 192.113ZM278.025 185.456L276.506 185.439L277.348 186.489L278.025 185.456ZM275.729 185.774L274.71 185.024L275.064 185.827L275.729 185.774ZM282.375 180.468L279.461 182.207L284.212 180.689L282.375 180.468ZM300.354 85.3275L299.624 85.6188L292.23 96.6815L295.215 107.674L290.176 104.239L275.276 124.192L281.963 158.864L300.337 181.695L310.533 180.724L327.646 156.241L333.987 161.91L342.311 132.421L349.081 129.525L342.841 119.116L339.644 127.962L335.458 128.218L330.837 118.727L339.968 122.736L340.857 115.028L321.818 96.3195L332.044 116.035L327.964 115.505L326.863 107.135L313.989 105.184L311.616 93.8298L308.054 100.602L300.354 85.3275ZM308.054 86.1044L319.098 95.313L318.333 86.5017L308.054 86.1044ZM313.724 78.8912L310.398 70.6097L308.378 69.7003L313.724 78.8912ZM303.733 74.7769L304.275 70.3978L302.409 69.2677L303.039 71.2807L302.98 73.841L301.62 78.538L309.126 84.4711L308.943 75.4832L303.733 74.7769ZM294.591 60.6418L289.587 62.9638L292.472 63.2198L292.854 67.7844L294.261 65.5242L295.727 69.559L298.824 70.1859L301.985 72.7109L302.709 71.6338L301.196 71.1482L300.272 69.5855L298.005 62.2928L294.591 60.6418Z" fill="#CCCCCC" stroke="black" stroke-width="3.09523"/>
<path d="M270.525 180.689L267.234 178.791L268.723 181.113L270.525 180.689ZM262.901 174.085L261.241 174.544L266.339 177.404L262.901 174.085ZM260.44 172.416L260.941 170.394L256.219 168.734L260.44 172.416ZM251.769 161L249.926 161.15L255.896 168.734L251.769 161ZM245.252 153.655L242.773 152.948L246.959 156.339L245.252 153.655ZM262.854 63.3522L257.609 83.2262L261.406 91.2252L254.377 109.033L261.429 119.584L270.16 116.706L275.276 124.192L290.176 104.239L295.215 107.674L292.23 96.6815L299.624 85.6188L262.854 63.3522ZM271.484 53.2696H269.771L269.865 54.8853L271.484 53.2696ZM287.874 53.1725L272.903 53.2784L290.941 60.527L287.874 53.1725Z" fill="#CCCCCC" stroke="black" stroke-width="3.09523"/>
<path d="M244.822 62.3369L241.561 58.152L243.98 75.1654L226.343 77.8759L226.372 91.34L215.146 95.7721L211.796 103.771L248.837 122.921L261.429 119.584L254.377 109.033L261.406 91.2252L257.609 83.2262L262.854 63.3523L244.822 62.3369ZM250.709 47.416L251.992 45.9858L249.92 46.3389L250.709 47.416ZM261.376 45.6768L260.711 44.2994L255.895 44.0699L261.376 45.6768Z" fill="#CCCCCC" stroke="black" stroke-width="3.09523"/>
<path d="M60.9886 93.8298L59.2637 93.8033L61.9835 94.1741L60.9886 93.8298ZM84.3483 20.0817L79.3561 21.4502L78.3318 25.794L75.8592 20.7085L68.5888 29.5551L62.4309 29.5463L42.8978 42.9928L39.7247 41.1387L22.8173 77.0106L29.6521 89.9892L19.5264 88.0645L1 101.273L20.6214 96.1076L20.0916 107.841L40.9257 97.0876L45.4469 79.3768L67.6292 78.3438L93.3319 48.3961L86.656 34.4993L88.116 21.9004L84.3483 20.0817Z" fill="#CCCCCC" stroke="black" stroke-width="3.09523"/>
<path d="M125.351 121.782L130.343 116.75L124.227 121.632L125.351 121.782ZM134.847 116.785L136.201 114.904L131.992 116.608L134.847 116.785ZM154.533 114.79L156.529 111.496L148.305 119.345L154.533 114.79ZM91.8306 96.1164L82.4291 102.473L87.4801 122.215L77.3604 117.421L82.2878 128.722L105.677 119.866L99.1776 99.7628L91.8306 96.1164ZM102.975 96.9375L101.132 94.6508L100.137 95.0305L102.975 96.9375Z" fill="#CCCCCC" stroke="black" stroke-width="3.09523"/>
<path d="M198.044 51.5127L193.587 53.2431L175.173 66.4424L190.379 87.6318L195.713 88.5501L195.118 77.9289L211.796 103.771L215.146 95.7721L205.085 50.8682L198.044 51.5127Z" fill="#CCCCCC" stroke="black" stroke-width="3.09523"/>
</svg>
