<svg width="349" height="190" viewBox="0 0 349 190" fill="none" xmlns="http://www.w3.org/2000/svg">
<path d="M241.657 65.2246L264.78 22.2625L263.007 6.177L224.293 15.4088L212.196 28.3715L234.787 66.8046L241.657 65.2246Z" fill="#CCCCCC" stroke="black" stroke-width="2.4"/>
<path d="M115.197 127.268L162.906 121.848L150.688 95.9461L151.016 58.8099L89.5457 76.1553L115.197 127.268Z" fill="#CCCCCC" stroke="black" stroke-width="2.4"/>
<path d="M7.81299 112.704L33.2417 134.53L38.7242 166.248L66.9023 182.153L104.869 184.169L92.0341 142.247L41.5873 104.786L33.5642 105.526L7.81299 112.704Z" fill="#CCCCCC" stroke="black" stroke-width="2.4"/>
<path d="M2.29444 91.2516L7.81174 112.704L33.563 105.525L27.2128 92.1193L2.29444 91.2516Z" fill="#CCCCCC" stroke="black" stroke-width="2.4"/>
<path d="M41.5864 104.786L46.8416 91.9623L27.2132 92.12L33.5634 105.526L41.5864 104.786Z" fill="#CCCCCC" stroke="black" stroke-width="2.4"/>
<path d="M194.963 135.168L215.341 119.108L234.788 66.8048L212.197 28.3717L151.017 58.8096L150.69 95.9458L162.908 121.848L194.963 135.168Z" fill="#CCCCCC" stroke="black" stroke-width="2.4"/>
<path d="M346.8 17.8011L302.912 2.40002L297.878 23.0934L275.449 2.40002L263.006 6.17721L264.779 22.2628L241.656 65.2248L302.295 56.3248L315.666 40.0049L346.178 33.1071L346.8 17.8011Z" fill="#CCCCCC" stroke="black" stroke-width="2.4"/>
<path d="M92.034 142.246L115.198 127.268L89.5467 76.1549L46.8422 91.962L41.5871 104.785L92.034 142.246Z" fill="#CCCCCC" stroke="black" stroke-width="2.4"/>
<path d="M104.868 184.169L159.788 187.886L165.278 177.303L247.204 172.893L219.782 168.028L194.961 135.167L162.906 121.847L115.197 127.267L92.0331 142.246L104.868 184.169Z" fill="#CCCCCC" stroke="black" stroke-width="2.4"/>
<path d="M247.203 172.893L302.912 142.657L318.216 104.231L310.237 83.0946L342.482 51.1254L346.178 33.1072L315.666 40.005L302.295 56.3248L241.656 65.2249L234.786 66.8049L215.338 119.108L194.961 135.168L219.782 168.028L247.203 172.893Z" fill="#CCCCCC" stroke="black" stroke-width="2.4"/>
</svg>
