<svg width="45" height="45" viewBox="0 0 45 45" fill="none" xmlns="http://www.w3.org/2000/svg">
<path d="M20.625 25.3125V3.75L5.625 25.3125H20.625ZM39.375 25.3125C39.375 12.1875 27.1875 1.875 23.4375 1.875C23.4375 1.875 25.3125 7.5 25.3125 14.0625C25.3125 20.625 23.4375 25.3125 23.4375 25.3125H39.375ZM41.25 28.125H3.75C4.30811 30.9096 5.8611 33.3958 8.11875 35.1187C9.3375 34.6125 10.4062 33.7687 11.25 32.8125C12.6187 34.3875 14.625 35.625 16.875 35.625C19.125 35.625 21.1313 34.3875 22.5 32.8125C23.8687 34.3875 25.875 35.625 28.125 35.625C30.375 35.625 32.3625 34.3875 33.75 32.8125C34.5938 33.7687 35.6625 34.6125 36.8812 35.1187C39.075 33.45 40.6688 30.9937 41.25 28.125ZM41.25 43.125V39.375H39.375C37.425 39.375 35.475 38.7188 33.75 37.5C30.3188 39.9375 25.9312 39.9375 22.5 37.5C19.0688 39.9375 14.6812 39.9375 11.25 37.5C9.54375 38.7188 7.575 39.375 5.625 39.375H3.75V43.125H5.625C7.55625 43.125 9.46875 42.6562 11.25 41.7188C14.7937 43.5938 18.9563 43.5938 22.5 41.7188C26.0438 43.5938 30.2062 43.5938 33.75 41.7188C35.5312 42.6562 37.4437 43.125 39.375 43.125H41.25Z" fill="white"/>
</svg>
