<svg width="45" height="45" viewBox="0 0 45 45" fill="none" xmlns="http://www.w3.org/2000/svg">
<path d="M32.6047 8.51397L35.1247 5.99397C35.2471 5.87144 35.3925 5.77425 35.5525 5.70793C35.7126 5.64162 35.8841 5.60748 36.0573 5.60748C36.2305 5.60748 36.402 5.64162 36.5621 5.70793C36.7221 5.77425 36.8675 5.87144 36.9899 5.99397L39.0037 8.00997C39.5212 8.52747 39.5212 9.35997 39.0037 9.87747L36.4859 12.3952L32.6047 8.51397ZM31.0139 10.1047L25.3214 15.7972L25.0289 15.507C24.4929 14.971 23.8372 14.5701 23.1158 14.3373C22.3944 14.1044 21.628 14.0464 20.8798 14.1679C20.1316 14.2894 19.4229 14.587 18.8123 15.0362C18.2017 15.4853 17.7065 16.0731 17.3677 16.7512L16.6049 18.2745C16.4714 18.5416 16.2536 18.7574 15.9852 18.8883C15.7168 19.0193 15.4127 19.0582 15.1199 18.999L14.9894 18.9742C13.4414 18.6644 11.8373 18.799 10.3626 19.3624C8.88784 19.9258 7.60261 20.895 6.65542 22.158C5.09826 24.2336 4.34222 26.8013 4.52615 29.3896C4.71008 31.9779 5.82164 34.4129 7.65667 36.2475L8.75242 37.3432C10.587 39.1782 13.022 40.2898 15.6103 40.4737C18.1986 40.6577 20.7663 39.9016 22.8419 38.3445C24.1049 37.3973 25.0741 36.112 25.6375 34.6373C26.2009 33.1625 26.3354 31.5585 26.0257 30.0105L26.0009 29.8777C25.9417 29.585 25.9806 29.2809 26.1116 29.0125C26.2425 28.744 26.4583 28.5262 26.7254 28.3927L28.2487 27.6322C28.9267 27.2934 29.5146 26.7982 29.9637 26.1876C30.4129 25.577 30.7105 24.8683 30.832 24.1201C30.9535 23.3719 30.8954 22.6055 30.6626 21.8841C30.4298 21.1627 30.0289 20.507 29.4929 19.971L29.2004 19.6785L34.8929 13.986L31.0139 10.1047ZM18.8234 26.1765C18.5622 25.9153 18.355 25.6052 18.2137 25.2639C18.0723 24.9226 17.9996 24.5569 17.9996 24.1875C17.9996 23.8181 18.0723 23.4523 18.2137 23.111C18.355 22.7698 18.5622 22.4597 18.8234 22.1985C19.0846 21.9373 19.3947 21.7301 19.736 21.5887C20.0773 21.4474 20.443 21.3746 20.8124 21.3746C21.1818 21.3746 21.5476 21.4474 21.8889 21.5887C22.2301 21.7301 22.5402 21.9373 22.8014 22.1985C23.3289 22.726 23.6253 23.4414 23.6253 24.1875C23.6253 24.9335 23.3289 25.649 22.8014 26.1765C22.2739 26.704 21.5584 27.0003 20.8124 27.0003C20.0664 27.0003 19.3509 26.704 18.8234 26.1765Z" fill="white"/>
</svg>
