<svg width="45" height="45" viewBox="0 0 45 45" fill="none" xmlns="http://www.w3.org/2000/svg">
<path d="M22.5 37.5H3.75V33.75H14.5312C13.125 28.4813 9.01875 24.375 3.75 22.9875C4.95 22.6875 6.20625 22.5 7.5 22.5C15.7875 22.5 22.5 29.2125 22.5 37.5ZM41.25 22.9875C40.05 22.6875 38.7938 22.5 37.5 22.5C32.0063 22.5 27.1875 25.4625 24.6 29.8688C25.1437 31.1063 25.5938 32.4 25.8563 33.75C26.1 34.9688 26.25 36.225 26.25 37.5H41.25V33.75H30.45C31.875 28.4813 35.9813 24.375 41.25 22.9875ZM29.325 20.625C30.7875 16.7438 33.5062 13.4625 36.9937 11.25C28.95 11.55 22.5 18.1313 22.5 26.25C24.2812 23.9062 26.625 21.975 29.325 20.625ZM21.4125 16.5938C20.6361 14.5542 19.4503 12.6952 17.9283 11.1313C16.4063 9.56734 14.5802 8.33154 12.5625 7.5C15.2625 10.9875 16.875 15.3375 16.875 20.0813C16.875 20.475 16.8188 20.85 16.8 21.225C17.6062 21.675 18.3563 22.2 19.0875 22.7625C19.4886 20.5841 20.276 18.495 21.4125 16.5938Z" fill="white"/>
</svg>
