<svg width="45" height="45" viewBox="0 0 45 45" fill="none" xmlns="http://www.w3.org/2000/svg">
<path d="M30 5.625H7.5C6.50544 5.625 5.55161 6.02009 4.84835 6.72335C4.14509 7.42661 3.75 8.38044 3.75 9.375V18.75C3.75 19.7446 4.14509 20.6984 4.84835 21.4016C5.55161 22.1049 6.50544 22.5 7.5 22.5H13.4062C14.1938 22.5 14.9063 22.95 15.1875 23.6812C15.4977 24.6248 16.169 25.407 17.0545 25.8568C17.94 26.3066 18.9676 26.3873 19.9125 26.0812C21.0562 25.7062 21.9375 24.8062 22.3125 23.6812C22.5938 22.95 23.3063 22.5 24.0938 22.5H30C30.9946 22.5 31.9484 22.1049 32.6516 21.4016C33.3549 20.6984 33.75 19.7446 33.75 18.75V9.375C33.75 8.38044 33.3549 7.42661 32.6516 6.72335C31.9484 6.02009 30.9946 5.625 30 5.625ZM30 18.75H21.2812C20.8125 17.7375 19.8563 17.0437 18.75 16.875C17.6438 17.0437 16.6875 17.7375 16.2187 18.75H7.5V9.375H30V18.75ZM41.25 3.75V29.0625C41.25 30.663 40.9348 32.2478 40.3223 33.7265C39.7098 35.2051 38.8121 36.5486 37.6804 37.6804C36.5486 38.8121 35.2051 39.7098 33.7265 40.3223C32.2478 40.9348 30.663 41.25 29.0625 41.25C25.8563 41.25 22.7812 39.975 20.4938 37.725C16.7813 38.5875 12.9 37.1063 10.7063 33.975L14.2875 32.4188C15.9375 34.1625 18.45 34.6875 20.625 33.75C21 33.5812 21.3563 33.375 21.675 33.1313C23.25 31.9688 24.1313 30.075 23.9625 28.125L27.5437 26.5688C28.3125 30.075 27.0187 33.75 24.1875 35.9437C25.6125 36.9562 27.3188 37.5 29.0625 37.5C33.75 37.5 37.5 33.75 37.5 29.0625V3.75H41.25Z" fill="white"/>
</svg>
