<svg width="45" height="45" viewBox="0 0 45 45" fill="none" xmlns="http://www.w3.org/2000/svg">
<path d="M37.5 37.5C34.8937 37.5 32.2875 36.6188 30 35.0063C25.425 38.2125 19.575 38.2125 15 35.0063C12.7125 36.6188 10.1062 37.5 7.5 37.5H3.75V41.25H7.5C10.0687 41.25 12.6375 40.5938 15 39.375C19.6875 41.8125 25.3125 41.8125 30 39.375C32.3625 40.5938 34.9125 41.25 37.5 41.25H41.25V37.5H37.5ZM38.9625 35.625H37.5C35.2875 35.625 33.075 34.875 31.0875 33.4688L30 32.7188L28.9125 33.4688C26.9813 34.8188 24.7687 35.5313 22.5 35.5313C20.1938 35.5313 17.9813 34.8188 16.05 33.4688L15 32.7188L13.9312 33.4688C11.925 34.875 9.7125 35.625 7.5 35.625H6.0375C7.03125 32.8875 10.4625 28.125 22.5 28.125C26.25 28.125 28.125 28.575 28.125 28.575C29.4 26.0063 31.5562 20.1938 30 12.7875L31.9875 14.1188C32.6062 16.8 33.75 22.0313 31.5 29.3438C36.4312 30.9375 38.2875 33.75 38.9625 35.625ZM41.25 14.2313C39.7687 12.1875 37.5 10.7063 34.8375 10.3688C35.0625 10.6313 35.2687 10.9313 35.475 11.25C36.5434 12.9562 37.0379 14.9594 36.8861 16.9668C36.7342 18.9741 35.9441 20.8802 34.6312 22.4063C35.7375 19.6875 35.625 16.4813 33.9 13.8C33.75 13.65 33.675 13.5 33.5625 13.3313C32.8125 12.2438 31.8 11.3625 30.7125 10.725C26.9062 11.9438 24.15 15.5063 24.15 19.6875C24.15 20.6813 24.3 21.6188 24.5625 22.5C23.4375 20.9438 22.8 19.0688 22.8 17.0063C22.8 13.8938 24.3 11.1563 26.625 9.43127C24.675 9.28127 22.6688 9.71252 20.8875 10.8375C20.0625 11.3438 19.35 11.9625 18.75 12.675C19.4812 10.9125 20.7188 9.37502 22.5 8.25002C24.3827 7.03908 26.6459 6.56508 28.8563 6.91877C28.2975 6.14383 27.6278 5.45522 26.8687 4.87502C26.1 4.29377 25.2563 3.84377 24.375 3.52502C26.25 3.58127 28.2 4.20002 29.8312 5.41877C30.6562 6.03752 31.3125 6.78752 31.875 7.59377C31.9875 7.59377 32.1 7.57502 32.2313 7.57502C34.2488 7.57396 36.2135 8.21989 37.8368 9.41795C39.4601 10.616 40.6564 12.3031 41.25 14.2313Z" fill="white"/>
</svg>
