<svg width="474" height="245" viewBox="0 0 474 245" fill="none" xmlns="http://www.w3.org/2000/svg">
<path d="M456.461 155.367L398.05 147.799L376.85 132.709L379.327 160.489L370.548 174.898L382.222 193.084L433.666 195.071L471.23 179.064L456.461 155.367Z" fill="#CCCCCC" stroke="black" stroke-width="3.09523"/>
<path d="M350.318 113.645L324.269 110.809L320.662 146.232L329.176 156.56L337.226 162.637L349.459 155.291L355.572 167.835L332.972 172.88L370.547 174.898L379.326 160.489L376.849 132.709L355.372 130.103L350.318 113.645Z" fill="#CCCCCC" stroke="black" stroke-width="3.09523"/>
<path d="M361.045 76.0348L341.533 71.1578L319.527 34.19L281.887 32.9899L297.75 83.3198L307.147 83.0676L324.27 110.809L350.318 113.645L361.045 76.0348Z" fill="#CCCCCC" stroke="black" stroke-width="3.09523"/>
<path d="M324.27 110.809L307.147 83.0676L297.75 83.3198L251.731 99.7168L268.1 187.962L283.205 183.75L288.759 199.245L309.401 203.06L329.177 156.56L320.663 146.232L324.27 110.809Z" fill="#CCCCCC" stroke="black" stroke-width="3.09523"/>
<path d="M281.886 32.9899L197.138 14.5595L191.59 96.7814L251.731 99.7168L297.75 83.3198L281.886 32.9899Z" fill="#CCCCCC" stroke="black" stroke-width="3.09523"/>
<path d="M456.461 155.367L436.214 108.546L361.045 76.0348L350.318 113.645L355.373 130.103L376.85 132.709L398.05 147.799L456.461 155.367Z" fill="#CCCCCC" stroke="black" stroke-width="3.09523"/>
<path d="M355.572 167.835L349.459 155.291L337.226 162.637L355.572 167.835Z" fill="#CCCCCC" stroke="black" stroke-width="3.09523"/>
<path d="M99.2634 67.4197L60.8994 54.9443L8.14295 66.8846L2 76.3865L9.28446 89.2212L71.6083 99.9996L89.9901 139.467L104.741 96.9419L99.2634 67.4197Z" fill="#CCCCCC" stroke="black" stroke-width="3.09523"/>
<path d="M197.139 14.5595L139.146 5.55457L129.308 85.529L159.587 89.5193L191.59 96.7814L197.139 14.5595Z" fill="#CCCCCC" stroke="black" stroke-width="3.09523"/>
<path d="M103.358 2L82.3638 23.1899L99.2628 67.4197L104.741 96.9419L129.307 85.529L139.145 5.55459L103.358 2Z" fill="#CCCCCC" stroke="black" stroke-width="3.09523"/>
<path d="M159.586 89.5193L129.307 85.529L104.741 96.9419L89.9897 139.467L115.538 149.298L116.803 169.058L140.187 196.837L175.838 196.165L159.586 89.5193Z" fill="#CCCCCC" stroke="black" stroke-width="3.09523"/>
<path d="M191.59 96.7814L159.586 89.5193L175.838 196.165L212.313 197.258L219.951 184.308L191.59 96.7814Z" fill="#CCCCCC" stroke="black" stroke-width="3.09523"/>
<path d="M82.3645 23.1899L32.909 23.9085L10.4202 47.6516L8.14307 66.8846L60.8995 54.9443L99.2635 67.4197L82.3645 23.1899Z" fill="#CCCCCC" stroke="black" stroke-width="3.09523"/>
<path d="M263.052 241.22L266.782 223.05L250.53 221.047L259.445 219.25L268.1 187.962L251.731 99.7168L191.59 96.7814L219.951 184.308L212.313 197.258L263.052 241.22Z" fill="#CCCCCC" stroke="black" stroke-width="3.09523"/>
</svg>
