<svg width="22" height="12" viewBox="0 0 22 12" fill="none" xmlns="http://www.w3.org/2000/svg">
<path fill-rule="evenodd" clip-rule="evenodd" d="M0.88868 0H21.1113C21.6021 0 22 0.390169 22 0.871433C22 1.3527 21.6021 1.74287 21.1113 1.74287H0.88868C0.397847 1.74287 0 1.3527 0 0.871433C0 0.390169 0.397847 0 0.88868 0ZM0.88868 5H21.1113C21.6021 5 22 5.39017 22 5.87143C22 6.3527 21.6021 6.74287 21.1113 6.74287H0.88868C0.397847 6.74287 0 6.3527 0 5.87143C0 5.39017 0.397847 5 0.88868 5ZM21.1113 10H0.88868C0.397847 10 0 10.3902 0 10.8714C0 11.3527 0.397847 11.7429 0.88868 11.7429H21.1113C21.6021 11.7429 22 11.3527 22 10.8714C22 10.3902 21.6021 10 21.1113 10Z" fill="white"/>
</svg>
