<svg width="12" height="12" viewBox="0 0 12 12" fill="none" xmlns="http://www.w3.org/2000/svg">
<g clip-path="url(#clip0)">
<path fill-rule="evenodd" clip-rule="evenodd" d="M0.759277 6.32182C0.759277 8.98314 2.69214 11.1961 5.22008 11.6449V7.77872H3.88184V6.29193H5.22008V5.10224C5.22008 3.76399 6.08236 3.02082 7.30194 3.02082C7.68825 3.02082 8.10489 3.08015 8.49119 3.13948V4.50761H7.80735C7.15295 4.50761 7.00441 4.83459 7.00441 5.25123V6.29193H8.43187L8.1941 7.77872H7.00441V11.6449C9.53235 11.1961 11.4652 8.98358 11.4652 6.32182C11.4652 3.36118 9.05638 0.938965 6.11225 0.938965C3.16811 0.938965 0.759277 3.36118 0.759277 6.32182Z" fill="white"/>
</g>
<defs>
<clipPath id="clip0">
<rect width="10.7059" height="10.7059" fill="white" transform="translate(0.759277 0.938965)"/>
</clipPath>
</defs>
</svg>
