<svg width="45" height="45" viewBox="0 0 45 45" fill="none" xmlns="http://www.w3.org/2000/svg">
<path d="M15.375 22.6875C14.8125 23.0625 14.4375 23.8125 14.625 24.375C14.625 25.6875 15.9375 26.625 17.0625 26.625C18.1875 26.625 19.3125 25.6875 19.3125 24.375C18.1875 23.625 16.875 23.0625 15.375 22.6875ZM41.25 20.625L43.125 13.125C43.125 13.125 39.375 13.125 33.75 9.375C28.125 5.625 28.125 1.875 22.5 1.875C16.875 1.875 16.875 5.625 11.25 9.375C5.625 13.125 1.875 13.125 1.875 13.125L3.75 20.625H3.9375C3.75 21.1875 3.75 21.9375 3.75 22.5C3.75 29.0625 7.125 34.875 12.1875 38.25L11.25 39.9375C23.25 47.625 33.75 39.9375 33.75 39.9375L32.8125 38.25C37.875 34.875 41.25 29.0625 41.25 22.5V20.625ZM21.1875 8.4375L18.5625 5.8125L19.875 4.5L22.5 7.125L25.125 4.5L26.4375 5.8125L23.8125 8.4375L26.4375 11.0625L25.125 12.375L22.5 9.75L19.875 12.375L18.5625 11.0625L21.1875 8.4375ZM17.4375 15.9375C19.3125 15.375 21.1875 15 22.5 15C26.625 15 33.5625 18 37.125 19.5C37.3125 20.0625 37.3125 20.625 37.3125 21.1875L17.4375 15.9375ZM25.5 35.8125C24.1875 36.5625 22.875 37.125 21.375 37.3125C20.4375 36.5625 20.4375 35.0625 21.375 34.3125C22.125 33.5625 23.8125 33.1875 24.75 34.125C25.3125 34.3125 25.5 35.25 25.5 35.8125ZM37.5 25.125C36.5625 29.0625 34.125 32.625 30.9375 34.875L28.125 30H16.875L14.0625 34.875C10.125 32.25 7.5 27.75 7.5 22.5C7.5 21.5625 7.6875 20.625 7.875 19.6875C8.8125 19.3125 9.9375 18.75 11.25 18.1875L24.5625 21.75V26.25C24.5625 27.1875 25.3125 28.125 26.4375 28.125H30.1875C31.125 28.125 32.0625 27.375 32.0625 26.25V23.625L37.5 25.125Z" fill="white"/>
</svg>
