<svg width="70" height="71" viewBox="0 0 70 71" fill="none" xmlns="http://www.w3.org/2000/svg">
<path d="M32.8558 37.2521L9.63769 19.1996L7.76855 17.7451L9.64449 19.2064V54.6318H60.757V19.2064L37.5253 37.2521C36.8576 37.7709 36.0361 38.0525 35.1905 38.0525C34.345 38.0525 33.5235 37.7709 32.8558 37.2521Z" fill="black" fill-opacity="0.15"/>
<path d="M59.9602 14.3125L62.6314 17.7449L60.7554 19.2062L62.6382 17.7449L59.967 14.3125H59.9602Z" fill="black" fill-opacity="0.15"/>
<path d="M63.4748 11.6753H6.92476C5.72171 11.6753 4.74976 12.6472 4.74976 13.8503V57.3503C4.74976 58.5533 5.72171 59.5253 6.92476 59.5253H63.4748C64.6778 59.5253 65.6498 58.5533 65.6498 57.3503V13.8503C65.6498 12.6472 64.6778 11.6753 63.4748 11.6753ZM57.0517 16.5758L35.1998 33.5612L13.3478 16.5758H57.0517ZM60.756 19.2062V54.6315H9.64351V19.2062L7.76757 17.7449L9.63671 19.1994L32.8548 37.2519C33.5226 37.7707 34.344 38.0523 35.1896 38.0523C36.0351 38.0523 36.8566 37.7707 37.5243 37.2519L60.756 19.2062L62.6319 17.7449L59.9608 14.3125H59.9676L62.6387 17.7449L60.756 19.2062Z" fill="black"/>
</svg>
