<svg width="45" height="45" viewBox="0 0 45 45" fill="none" xmlns="http://www.w3.org/2000/svg">
<path d="M18.75 41.25C18.2527 41.25 17.7758 41.0525 17.4242 40.7008C17.0725 40.3492 16.875 39.8723 16.875 39.375V20.625C16.875 16.875 18.75 13.5938 20.625 13.125V4.6875C20.625 4.43886 20.7238 4.2004 20.8996 4.02459C21.0754 3.84877 21.3139 3.75 21.5625 3.75H23.4375C23.6861 3.75 23.9246 3.84877 24.1004 4.02459C24.2762 4.2004 24.375 4.43886 24.375 4.6875V13.125C26.25 13.5938 28.125 16.875 28.125 20.625V39.375C28.125 39.8723 27.9275 40.3492 27.5758 40.7008C27.2242 41.0525 26.7473 41.25 26.25 41.25H18.75Z" fill="white"/>
</svg>
