<svg width="12" height="12" viewBox="0 0 12 12" fill="none" xmlns="http://www.w3.org/2000/svg">
<g clip-path="url(#clip0)">
<path d="M7.70393 3.86475H4.588C4.09039 3.86475 3.68604 4.26911 3.68604 4.76671V7.88216C3.68604 8.37977 4.09037 8.7847 4.588 8.7847H7.70395C8.201 8.7847 8.60594 8.37977 8.60594 7.88216V4.76671C8.60592 4.26908 8.201 3.86475 7.70393 3.86475ZM6.14568 7.94416C5.25281 7.94416 4.52601 7.21733 4.52601 6.32446C4.52601 5.43159 5.25283 4.70479 6.14568 4.70479C7.03912 4.70479 7.76536 5.43159 7.76536 6.32446C7.76536 7.21733 7.03856 7.94416 6.14568 7.94416ZM7.81769 5.03969C7.60612 5.03969 7.43439 4.86801 7.43439 4.65645C7.43439 4.44538 7.60612 4.27314 7.81769 4.27314C8.02867 4.27314 8.201 4.44538 8.201 4.65645C8.201 4.86801 8.02867 5.03969 7.81769 5.03969Z" fill="current"/>
<path d="M6.14638 5.38965C5.63113 5.38965 5.21143 5.80879 5.21143 6.32459C5.21143 6.84041 5.63113 7.26012 6.14638 7.26012C6.6622 7.26012 7.08191 6.84041 7.08191 6.32459C7.08191 5.80933 6.6622 5.38965 6.14638 5.38965Z" fill="current"/>
<path d="M6.14544 1.08252C3.25868 1.08252 0.918457 3.42274 0.918457 6.3095C0.918457 9.19625 3.25868 11.5365 6.14544 11.5365C9.03219 11.5365 11.3724 9.19625 11.3724 6.3095C11.3724 3.42276 9.03219 1.08252 6.14544 1.08252ZM9.28982 7.88142C9.28982 8.75664 8.57838 9.4681 7.7037 9.4681H4.58775C3.71309 9.4681 3.00107 8.75666 3.00107 7.88142V4.76597C3.00107 3.89137 3.71309 3.17935 4.58775 3.17935H7.7037C8.57838 3.17935 9.28982 3.89137 9.28982 4.76597V7.88142Z" fill="current"/>
</g>
<defs>
<clipPath id="clip0">
<rect width="10.7049" height="10.7049" fill="current" transform="translate(0.772461 0.939941)"/>
</clipPath>
</defs>
</svg>
