<svg width="37" height="37" viewBox="0 0 37 37" fill="none" xmlns="http://www.w3.org/2000/svg">
<path d="M3.08317 16.9585L6.24359 17.1126C6.43037 15.4252 6.96525 13.7949 7.81441 12.3248C8.66358 10.8547 9.80855 9.57674 11.1769 8.57181L9.45025 5.92015C9.034 5.18015 9.24984 4.23973 10.0207 3.80806C10.7915 3.39181 11.7011 3.63848 12.1328 4.37848L13.5665 7.18431C15.1249 6.51432 16.8035 6.16878 18.4998 6.16878C20.1962 6.16878 21.8747 6.51432 23.4332 7.18431L24.8669 4.37848C25.2986 3.63848 26.2082 3.39181 26.979 3.80806C27.7498 4.23973 27.9657 5.18015 27.5494 5.92015L25.8228 8.57181C27.1911 9.57674 28.3361 10.8547 29.1853 12.3248C30.0344 13.7949 30.5693 15.4252 30.7561 17.1126L33.9165 16.9585C34.3254 16.9585 34.7175 17.1209 35.0066 17.41C35.2957 17.6991 35.4582 18.0913 35.4582 18.5001C35.4582 18.909 35.2957 19.3011 35.0066 19.5903C34.7175 19.8794 34.3254 20.0418 33.9165 20.0418L30.7561 19.8876C30.5693 21.5751 30.0344 23.2054 29.1853 24.6755C28.3361 26.1456 27.1911 27.4236 25.8228 28.4285L27.5494 31.0801C27.9657 31.8201 27.7498 32.7606 26.979 33.1922C26.2082 33.6085 25.2986 33.3618 24.8669 32.6218L23.4332 29.816C21.8747 30.486 20.1962 30.8315 18.4998 30.8315C16.8035 30.8315 15.1249 30.486 13.5665 29.816L12.1328 32.6218C11.7011 33.3618 10.7915 33.6085 10.0207 33.1922C9.24984 32.7606 9.034 31.8201 9.45025 31.0801L11.1769 28.4285C9.80855 27.4236 8.66358 26.1456 7.81441 24.6755C6.96525 23.2054 6.43037 21.5751 6.24359 19.8876L3.08317 20.0418C2.6743 20.0418 2.28217 19.8794 1.99305 19.5903C1.70393 19.3011 1.5415 18.909 1.5415 18.5001C1.5415 18.0913 1.70393 17.6991 1.99305 17.41C2.28217 17.1209 2.6743 16.9585 3.08317 16.9585ZM13.9828 17.4981C14.1832 16.5576 14.6919 15.7251 15.4165 15.0931L12.8573 11.1772C10.9231 12.6617 9.6541 14.8506 9.32692 17.2668L13.9828 17.4981ZM18.4998 13.8751C18.9932 13.8751 19.4557 13.9522 19.8873 14.091L22.0148 9.9439C20.9357 9.49681 19.7486 9.25015 18.4998 9.25015C17.2511 9.25015 16.064 9.49681 14.9848 9.9439L17.1123 14.091C17.544 13.9522 18.0065 13.8751 18.4998 13.8751ZM23.0169 17.4981L27.6728 17.2668C27.3456 14.8506 26.0766 12.6617 24.1423 11.1772L21.5832 15.0931C22.3078 15.7251 22.8165 16.5576 23.0169 17.4981ZM23.0169 19.5022C22.8165 20.4426 22.3078 21.2751 21.5832 21.9072L24.1423 25.8231C26.0766 24.3386 27.3456 22.1497 27.6728 19.7335L23.0169 19.5022ZM18.4998 23.1251C18.0065 23.1251 17.544 23.0481 17.0969 22.9093L14.9848 27.0564C16.064 27.5035 17.2511 27.7501 18.4998 27.7501C19.7486 27.7501 20.9357 27.5035 22.0148 27.0564L19.9028 22.9093C19.4557 23.0481 18.9932 23.1251 18.4998 23.1251ZM13.9828 19.5022L9.32692 19.7335C9.66609 22.2001 10.9611 24.3739 12.8573 25.8231L15.4165 21.9072C14.6919 21.2751 14.1832 20.4426 13.9828 19.5022Z" fill="white"/>
</svg>
