<svg width="12" height="12" viewBox="0 0 12 12" fill="none" xmlns="http://www.w3.org/2000/svg">
<g clip-path="url(#clip0)">
<path d="M6.20789 0.938965C3.25211 0.938965 0.855469 3.33561 0.855469 6.29139C0.855469 9.24717 3.25211 11.6438 6.20789 11.6438C9.16368 11.6438 11.5603 9.24717 11.5603 6.29139C11.5603 3.33561 9.16368 0.938965 6.20789 0.938965ZM8.78017 4.9736C8.78375 5.02975 8.78375 5.08829 8.78375 5.14564C8.78375 6.89951 7.44803 8.91982 5.00718 8.91982C4.2545 8.91982 3.55677 8.70118 2.96896 8.32484C3.07649 8.33678 3.17923 8.34156 3.28915 8.34156C3.91041 8.34156 4.4815 8.13129 4.93669 7.77526C4.35366 7.76331 3.86382 7.38099 3.69656 6.85531C3.90086 6.88518 4.08485 6.88518 4.29512 6.83141C3.99491 6.77042 3.72508 6.60738 3.53146 6.36998C3.33784 6.13259 3.23238 5.83549 3.233 5.52915V5.51242C3.40862 5.61159 3.61531 5.67252 3.83156 5.68088C3.64977 5.55973 3.50069 5.39559 3.39753 5.20302C3.29436 5.01045 3.24031 4.7954 3.24017 4.57694C3.24017 4.32963 3.30468 4.10383 3.42057 3.90789C3.75379 4.31809 4.16959 4.65358 4.64095 4.89255C5.11232 5.13153 5.6287 5.26864 6.15652 5.29498C5.96895 4.39295 6.64278 3.66297 7.45281 3.66297C7.83513 3.66297 8.17921 3.82306 8.42174 4.08113C8.72162 4.02497 9.00836 3.91267 9.26403 3.76213C9.16487 4.06918 8.95699 4.32844 8.681 4.49212C8.94862 4.46344 9.20669 4.38937 9.44563 4.28543C9.26523 4.55066 9.03942 4.78602 8.78017 4.9736Z" fill="white"/>
</g>
<defs>
<clipPath id="clip0">
<rect width="10.7049" height="10.7049" fill="white" transform="translate(0.85498 0.938965)"/>
</clipPath>
</defs>
</svg>
